<svg width="222" height="43" viewBox="0 0 222 43" fill="none" xmlns="http://www.w3.org/2000/svg">
<path fill-rule="evenodd" clip-rule="evenodd" d="M5.08738e-05 20.6485C5.08738e-05 22.9192 0.389515 24.9538 0.938494 26.6868C1.00173 26.8864 1.0741 27.1188 1.15595 27.3266C1.2431 27.5479 1.31142 27.7731 1.4015 27.9773C1.45034 28.0879 1.47531 28.157 1.52283 28.2846C1.71394 28.7978 1.98919 29.2739 2.23092 29.7583C2.70069 30.6999 3.28009 31.5992 3.91296 32.4395L4.69171 33.4136C4.91176 33.6991 4.94348 33.5425 5.00926 33.9531L6.01496 39.963C6.09855 40.4641 6.37268 41.8567 6.38138 42.247H6.49811V35.0345C6.49819 34.8694 6.50801 34.6982 6.48615 34.537L6.49811 23.1047C6.38868 23.0754 6.30237 22.99 6.21668 22.9188C3.21133 20.4221 3.31997 14.407 6.26999 12.1938C7.38275 11.359 8.77843 11.246 9.93423 12.0985C10.953 12.85 11.5269 13.8807 11.9357 15.0834C12.5529 16.8992 12.3656 19.3853 11.5571 21.039C11.1256 21.9217 10.6919 22.4427 9.95832 23.0238C9.89948 23.0704 9.84444 23.0799 9.84444 23.1827V32.7343C9.84444 33.8777 10.2547 35.3147 10.7447 36.0819C10.7832 36.1421 10.7625 36.1044 10.7915 36.152L11.685 37.4399C12.6942 38.7811 14.6057 39.7388 16.209 40.0026C16.7958 40.0991 17.3562 40.2197 17.9379 40.2197V23.2606C17.5255 23.2262 16.822 22.5779 16.5219 22.3012L16.3808 22.1306C16.1006 21.7411 15.8431 21.3881 15.6529 20.9107C15.5234 20.5857 15.3698 20.0679 15.3698 19.6349V12.1495C15.3698 11.5009 16.2965 11.2564 16.6333 11.7802C16.7798 12.008 16.771 12.2223 16.7706 12.5783L16.7681 17.2202C16.7789 17.8567 17.7151 17.9044 17.813 17.2875C17.869 16.9343 17.8212 13.3286 17.8211 12.6953C17.8211 12.3589 17.7873 12.1098 17.8972 11.8748C18.1294 11.3781 18.7354 11.4325 18.9895 11.8365C19.14 12.0757 19.0663 14.1561 19.0663 14.5276C19.0663 14.9677 19.018 16.9005 19.0746 17.2483C19.1757 17.8703 20.0329 17.9095 20.1418 17.2817C20.2074 16.9038 20.1557 13.3472 20.1557 12.6953C20.1557 12.1824 20.106 11.5196 20.7841 11.5096C21.0028 11.5064 21.2257 11.6674 21.323 11.8376C21.4792 12.1106 21.4009 14.1295 21.4009 14.5276C21.4009 15.0415 21.3556 16.8232 21.4044 17.2532C21.458 17.7263 22.0518 17.8862 22.3529 17.5479C22.5334 17.3451 22.4515 16.3053 22.4515 16.0092C22.4515 15.2814 22.4515 14.5537 22.4515 13.8259C22.4515 13.0634 22.154 11.2651 23.3119 11.5185C23.5623 11.5732 23.8522 11.7914 23.8522 12.0715V19.6349C23.8522 20.6689 23.3152 21.5621 22.7771 22.2224C22.531 22.5244 22.1627 22.8263 21.8157 23.0135C21.6553 23.1 21.4733 23.2448 21.2841 23.2606V40.2197C22.1921 40.2197 23.1362 39.8996 23.9467 39.5346C24.5593 39.2587 25.1354 38.899 25.6321 38.4552C25.7536 38.3466 25.8277 38.3009 25.944 38.183C27.1811 36.9294 27.9847 35.5661 28.2666 33.7655C28.4497 32.5964 28.3658 30.7231 28.3658 29.4594L28.3635 12.0692C28.3633 11.9627 28.3528 11.9065 28.3922 11.8251C28.5512 11.4963 28.9537 11.8525 29.1369 11.9617C29.3171 12.0692 29.7212 12.3434 29.8776 12.5062L31.3234 14.0985C32.0843 15.1794 32.6248 16.3961 32.9495 17.6934C33.6706 20.5746 33.3464 23.8188 32.6772 26.6837C32.5047 27.4224 32.2962 28.1048 32.1374 28.8718C32.0608 29.2415 31.9861 29.6118 31.9231 30.0217L31.7791 31.2809C31.6382 32.3638 31.7122 40.9027 31.7122 42.208H31.8289C31.8289 41.9519 31.9027 41.6505 31.94 41.4226L32.3381 39.1315C32.5935 37.8491 32.7662 36.5526 33.0061 35.2783C33.0789 34.892 33.0909 34.9443 33.318 34.6942C33.4606 34.5372 33.489 34.5673 33.6848 34.3208L33.7617 34.242C34.1594 33.8677 34.4922 33.4744 34.834 33.0552L35.223 32.5482C35.8456 31.7977 36.3737 30.9298 36.8356 30.0704L37.2929 29.164C37.3458 29.0353 37.3872 28.9708 37.4455 28.8492C37.7491 28.2165 37.9946 27.5525 38.2152 26.8913C39.191 23.9671 39.4759 20.5272 38.9329 17.2734C38.7617 16.2469 38.5028 15.2701 38.186 14.318C38.002 13.7649 37.787 13.3004 37.5922 12.7687C37.3123 12.0047 36.6569 10.8711 36.2184 10.1686C36.1276 10.0232 36.0668 9.93815 35.9757 9.78803C35.7136 9.35617 35.4059 8.92165 35.0788 8.54241L34.2472 7.54329C33.9604 7.18342 33.546 6.75584 33.1998 6.44845L31.5401 5.03145C30.4881 4.20577 29.3156 3.52251 28.1193 2.92284L27.6916 2.72764C27.0985 2.45052 26.5481 2.24411 25.9292 2.03731C24.6158 1.59854 23.3447 1.3253 21.9181 1.14391C19.1051 0.786208 15.9671 1.09954 13.2924 2.03693L10.7261 3.13037C10.1642 3.43369 9.58345 3.70552 9.07021 4.08336L7.53596 5.1582C7.47468 5.20945 7.42391 5.25816 7.36915 5.30296L7.02051 5.5774C6.23708 6.19476 5.18028 7.29602 4.5646 8.02901C4.46858 8.14332 4.39069 8.23199 4.30194 8.3506C3.67449 9.18926 3.06906 10.0095 2.5561 10.9289C2.25786 11.4636 1.96414 11.987 1.72846 12.5558C1.21387 13.7977 0.813574 14.8977 0.497698 16.2349C0.200824 17.492 0 19.0887 0 20.6485L5.08738e-05 20.6485Z" fill="#FDCF00"/>
<path fill-rule="evenodd" clip-rule="evenodd" d="M30.8173 20.1027C30.8173 20.2564 30.8448 20.2806 30.8448 20.3756C30.8448 20.4706 30.8173 20.4948 30.8173 20.6485V29.3425C30.8173 29.4477 30.8359 29.45 30.8562 29.5374H30.9729C30.9828 29.4186 31.2302 28.8875 31.2988 28.6943C31.405 28.395 31.4955 28.1325 31.6071 27.8336C31.9517 26.9106 32.3998 24.9531 32.5229 24.0728C32.7718 22.2934 32.8299 20.5077 32.5465 18.721C32.3579 17.5324 32.0767 16.7617 31.6291 15.6636C31.4708 15.2754 30.9523 14.4013 30.934 14.3327H30.8173V18.6992C30.8173 18.9344 30.804 19.2101 30.8172 19.4402C30.8272 19.6136 30.8599 19.5892 30.8507 19.746C30.8441 19.8588 30.8173 19.9229 30.8173 20.1027Z" fill="#FDCF00"/>
<path fill-rule="evenodd" clip-rule="evenodd" d="M10.3892 21.8181C10.7568 21.7874 11.3592 20.3008 11.4352 20.0591C12.0915 17.973 11.9698 15.5157 10.7394 13.6699C10.5547 13.3928 10.5833 13.3352 10.3892 13.319V21.8181Z" fill="#FDCF00"/>
<path d="M56.7205 10.176C60.3045 10.176 62.9552 11.016 64.6725 12.696C66.4085 14.3573 67.2765 16.7467 67.2765 19.864C67.2765 21.8987 66.8472 23.6813 65.9885 25.212C65.1485 26.724 63.9258 27.9 62.3205 28.74C60.7152 29.58 58.7645 30 56.4685 30C56.1885 30 55.8058 29.9907 55.3205 29.972C54.8538 29.9533 54.3592 29.944 53.8365 29.944C53.3325 29.9253 52.8658 29.916 52.4365 29.916C51.6712 29.916 50.9245 29.9253 50.1965 29.944C49.4685 29.944 48.8712 29.9627 48.4045 30V29.44C49.0205 29.4027 49.4778 29.328 49.7765 29.216C50.0938 29.104 50.2992 28.88 50.3925 28.544C50.5045 28.208 50.5605 27.704 50.5605 27.032V13.144C50.5605 12.4533 50.5045 11.9493 50.3925 11.632C50.2992 11.296 50.0938 11.072 49.7765 10.96C49.4778 10.8293 49.0205 10.7547 48.4045 10.736V10.176C48.8712 10.1947 49.4685 10.2227 50.1965 10.26C50.9245 10.2787 51.6525 10.2787 52.3805 10.26C53.0525 10.2413 53.8085 10.2227 54.6485 10.204C55.4885 10.1853 56.1792 10.176 56.7205 10.176ZM56.4685 10.68C55.6098 10.68 55.0498 10.8387 54.7885 11.156C54.5272 11.4733 54.3965 12.1173 54.3965 13.088V27.088C54.3965 28.0587 54.5272 28.7027 54.7885 29.02C55.0685 29.3373 55.6378 29.496 56.4965 29.496C58.2325 29.496 59.5858 29.132 60.5565 28.404C61.5458 27.6573 62.2365 26.5747 62.6285 25.156C63.0392 23.7373 63.2445 22.0107 63.2445 19.976C63.2445 17.8853 63.0205 16.1587 62.5725 14.796C62.1432 13.4147 61.4338 12.388 60.4445 11.716C59.4552 11.0253 58.1298 10.68 56.4685 10.68ZM72.8152 8.384C73.4872 8.384 74.0379 8.57067 74.4672 8.944C74.8966 9.31733 75.1112 9.812 75.1112 10.428C75.1112 11.044 74.8966 11.5387 74.4672 11.912C74.0379 12.2853 73.4872 12.472 72.8152 12.472C72.1432 12.472 71.5926 12.2853 71.1632 11.912C70.7339 11.5387 70.5192 11.044 70.5192 10.428C70.5192 9.812 70.7339 9.31733 71.1632 8.944C71.5926 8.57067 72.1432 8.384 72.8152 8.384ZM74.7752 15.216V27.396C74.7752 28.18 74.9152 28.712 75.1952 28.992C75.4939 29.272 75.9886 29.412 76.6792 29.412V30C76.3432 29.9813 75.8299 29.9627 75.1392 29.944C74.4486 29.9067 73.7486 29.888 73.0392 29.888C72.3486 29.888 71.6486 29.9067 70.9392 29.944C70.2299 29.9627 69.6979 29.9813 69.3432 30V29.412C70.0339 29.412 70.5192 29.272 70.7992 28.992C71.0979 28.712 71.2472 28.18 71.2472 27.396V18.604C71.2472 17.7453 71.1072 17.12 70.8272 16.728C70.5659 16.3173 70.0712 16.112 69.3432 16.112V15.524C69.9406 15.58 70.5192 15.608 71.0792 15.608C71.7699 15.608 72.4232 15.58 73.0392 15.524C73.6739 15.4493 74.2526 15.3467 74.7752 15.216ZM88.0085 15.132C88.7925 15.132 89.4178 15.2347 89.8845 15.44C90.3698 15.6453 90.7618 15.9067 91.0605 16.224C91.3965 16.5787 91.6298 17.036 91.7605 17.596C91.9098 18.156 91.9845 18.912 91.9845 19.864V27.396C91.9845 28.18 92.1245 28.712 92.4045 28.992C92.7032 29.272 93.1978 29.412 93.8885 29.412V30C93.5525 29.9813 93.0298 29.9627 92.3205 29.944C91.6298 29.9067 90.9578 29.888 90.3045 29.888C89.6138 29.888 88.9418 29.9067 88.2885 29.944C87.6352 29.9627 87.1498 29.9813 86.8325 30V29.412C87.4298 29.412 87.8498 29.272 88.0925 28.992C88.3352 28.712 88.4565 28.18 88.4565 27.396V18.912C88.4565 18.408 88.4098 17.96 88.3165 17.568C88.2232 17.1573 88.0365 16.84 87.7565 16.616C87.4765 16.3733 87.0752 16.252 86.5525 16.252C85.9365 16.252 85.3858 16.42 84.9005 16.756C84.4338 17.092 84.0605 17.5587 83.7805 18.156C83.5192 18.7347 83.3885 19.388 83.3885 20.116V27.396C83.3885 28.18 83.5098 28.712 83.7525 28.992C83.9952 29.272 84.4152 29.412 85.0125 29.412V30C84.6952 29.9813 84.2192 29.9627 83.5845 29.944C82.9498 29.9067 82.3058 29.888 81.6525 29.888C80.9618 29.888 80.2618 29.9067 79.5525 29.944C78.8432 29.9627 78.3112 29.9813 77.9565 30V29.412C78.6472 29.412 79.1325 29.272 79.4125 28.992C79.7112 28.712 79.8605 28.18 79.8605 27.396V18.576C79.8605 17.736 79.7205 17.12 79.4405 16.728C79.1792 16.3173 78.6845 16.112 77.9565 16.112V15.524C78.5538 15.58 79.1325 15.608 79.6925 15.608C80.3832 15.608 81.0365 15.58 81.6525 15.524C82.2872 15.4493 82.8658 15.3467 83.3885 15.216V18.016C83.8552 16.952 84.4992 16.2053 85.3205 15.776C86.1418 15.3467 87.0378 15.132 88.0085 15.132ZM102.048 15.132C103.69 15.132 104.978 15.6267 105.912 16.616C106.845 17.6053 107.312 19.1827 107.312 21.348H97.8757L97.8477 20.816H104.064C104.101 19.9013 104.045 19.0613 103.896 18.296C103.746 17.512 103.504 16.8867 103.168 16.42C102.85 15.9533 102.43 15.72 101.908 15.72C101.198 15.72 100.582 16.14 100.06 16.98C99.537 17.8013 99.2103 19.1547 99.0797 21.04L99.1917 21.208C99.1543 21.4507 99.1263 21.712 99.1077 21.992C99.1077 22.272 99.1077 22.552 99.1077 22.832C99.1077 24.12 99.2943 25.184 99.6677 26.024C100.041 26.864 100.526 27.48 101.124 27.872C101.721 28.264 102.337 28.46 102.972 28.46C103.401 28.46 103.84 28.3947 104.288 28.264C104.736 28.1333 105.174 27.8907 105.604 27.536C106.033 27.1813 106.425 26.6773 106.78 26.024L107.312 26.248C107.106 26.9013 106.761 27.5547 106.276 28.208C105.809 28.8427 105.202 29.3653 104.456 29.776C103.709 30.1867 102.832 30.392 101.824 30.392C100.554 30.392 99.4343 30.112 98.4637 29.552C97.493 28.992 96.737 28.1613 96.1957 27.06C95.6543 25.94 95.3837 24.5773 95.3837 22.972C95.3837 21.2733 95.6637 19.8453 96.2237 18.688C96.8023 17.5307 97.5957 16.6533 98.6037 16.056C99.6117 15.44 100.76 15.132 102.048 15.132ZM117.478 10.176C121.062 10.176 123.713 11.016 125.43 12.696C127.166 14.3573 128.034 16.7467 128.034 19.864C128.034 21.8987 127.605 23.6813 126.746 25.212C125.906 26.724 124.684 27.9 123.078 28.74C121.473 29.58 119.522 30 117.226 30C116.946 30 116.564 29.9907 116.078 29.972C115.612 29.9533 115.117 29.944 114.594 29.944C114.09 29.9253 113.624 29.916 113.194 29.916C112.429 29.916 111.682 29.9253 110.954 29.944C110.226 29.944 109.629 29.9627 109.162 30V29.44C109.778 29.4027 110.236 29.328 110.534 29.216C110.852 29.104 111.057 28.88 111.15 28.544C111.262 28.208 111.318 27.704 111.318 27.032V13.144C111.318 12.4533 111.262 11.9493 111.15 11.632C111.057 11.296 110.852 11.072 110.534 10.96C110.236 10.8293 109.778 10.7547 109.162 10.736V10.176C109.629 10.1947 110.226 10.2227 110.954 10.26C111.682 10.2787 112.41 10.2787 113.138 10.26C113.81 10.2413 114.566 10.2227 115.406 10.204C116.246 10.1853 116.937 10.176 117.478 10.176ZM117.226 10.68C116.368 10.68 115.808 10.8387 115.546 11.156C115.285 11.4733 115.154 12.1173 115.154 13.088V27.088C115.154 28.0587 115.285 28.7027 115.546 29.02C115.826 29.3373 116.396 29.496 117.254 29.496C118.99 29.496 120.344 29.132 121.314 28.404C122.304 27.6573 122.994 26.5747 123.386 25.156C123.797 23.7373 124.002 22.0107 124.002 19.976C124.002 17.8853 123.778 16.1587 123.33 14.796C122.901 13.4147 122.192 12.388 121.202 11.716C120.213 11.0253 118.888 10.68 117.226 10.68ZM133.573 8.384C134.245 8.384 134.796 8.57067 135.225 8.944C135.654 9.31733 135.869 9.812 135.869 10.428C135.869 11.044 135.654 11.5387 135.225 11.912C134.796 12.2853 134.245 12.472 133.573 12.472C132.901 12.472 132.35 12.2853 131.921 11.912C131.492 11.5387 131.277 11.044 131.277 10.428C131.277 9.812 131.492 9.31733 131.921 8.944C132.35 8.57067 132.901 8.384 133.573 8.384ZM135.533 15.216V27.396C135.533 28.18 135.673 28.712 135.953 28.992C136.252 29.272 136.746 29.412 137.437 29.412V30C137.101 29.9813 136.588 29.9627 135.897 29.944C135.206 29.9067 134.506 29.888 133.797 29.888C133.106 29.888 132.406 29.9067 131.697 29.944C130.988 29.9627 130.456 29.9813 130.101 30V29.412C130.792 29.412 131.277 29.272 131.557 28.992C131.856 28.712 132.005 28.18 132.005 27.396V18.604C132.005 17.7453 131.865 17.12 131.585 16.728C131.324 16.3173 130.829 16.112 130.101 16.112V15.524C130.698 15.58 131.277 15.608 131.837 15.608C132.528 15.608 133.181 15.58 133.797 15.524C134.432 15.4493 135.01 15.3467 135.533 15.216ZM144.062 15.132C144.846 15.132 145.518 15.244 146.078 15.468C146.638 15.692 147.049 15.888 147.31 16.056C147.945 16.5227 148.328 16.224 148.458 15.16H149.074C149.037 15.7013 149.009 16.3453 148.99 17.092C148.972 17.82 148.962 18.8 148.962 20.032H148.346C148.253 19.3413 148.076 18.6693 147.814 18.016C147.553 17.3627 147.17 16.8213 146.666 16.392C146.162 15.944 145.5 15.72 144.678 15.72C144.1 15.72 143.614 15.888 143.222 16.224C142.849 16.56 142.662 17.036 142.662 17.652C142.662 18.212 142.83 18.7067 143.166 19.136C143.502 19.5467 143.932 19.9387 144.454 20.312C144.996 20.6667 145.556 21.0587 146.134 21.488C146.806 21.936 147.404 22.3933 147.926 22.86C148.449 23.308 148.869 23.812 149.186 24.372C149.504 24.9133 149.662 25.5573 149.662 26.304C149.662 27.1627 149.42 27.9 148.934 28.516C148.468 29.1133 147.842 29.58 147.058 29.916C146.293 30.2333 145.444 30.392 144.51 30.392C144.006 30.392 143.549 30.3453 143.138 30.252C142.728 30.1587 142.364 30.0373 142.046 29.888C141.804 29.7573 141.58 29.636 141.374 29.524C141.188 29.412 140.992 29.3187 140.786 29.244C140.6 29.1507 140.432 29.188 140.282 29.356C140.152 29.524 140.049 29.804 139.974 30.196H139.358C139.396 29.5987 139.424 28.8707 139.442 28.012C139.461 27.1533 139.47 26.0147 139.47 24.596H140.086C140.217 25.6227 140.413 26.528 140.674 27.312C140.954 28.0773 141.356 28.684 141.878 29.132C142.401 29.5613 143.073 29.776 143.894 29.776C144.249 29.776 144.585 29.7013 144.902 29.552C145.238 29.4027 145.509 29.1693 145.714 28.852C145.938 28.5347 146.05 28.1053 146.05 27.564C146.05 26.7427 145.77 26.0613 145.21 25.52C144.65 24.9787 143.95 24.4 143.11 23.784C142.476 23.3173 141.878 22.86 141.318 22.412C140.777 21.964 140.329 21.46 139.974 20.9C139.638 20.34 139.47 19.6773 139.47 18.912C139.47 18.072 139.685 17.3813 140.114 16.84C140.544 16.28 141.104 15.86 141.794 15.58C142.504 15.2813 143.26 15.132 144.062 15.132ZM158.679 15.132C159.37 15.132 160.005 15.216 160.583 15.384C161.181 15.5333 161.694 15.748 162.123 16.028C162.571 16.308 162.926 16.6627 163.187 17.092C163.449 17.5027 163.579 17.96 163.579 18.464C163.579 19.08 163.393 19.5747 163.019 19.948C162.646 20.3213 162.179 20.508 161.619 20.508C161.041 20.508 160.565 20.34 160.191 20.004C159.837 19.668 159.659 19.22 159.659 18.66C159.659 18.1187 159.818 17.6707 160.135 17.316C160.453 16.9613 160.835 16.728 161.283 16.616C161.115 16.3733 160.854 16.1773 160.499 16.028C160.145 15.86 159.753 15.776 159.323 15.776C158.763 15.776 158.259 15.9253 157.811 16.224C157.363 16.504 156.971 16.9333 156.635 17.512C156.318 18.072 156.066 18.772 155.879 19.612C155.711 20.4333 155.627 21.3853 155.627 22.468C155.627 23.98 155.805 25.1747 156.159 26.052C156.533 26.9293 157.009 27.5547 157.587 27.928C158.166 28.2827 158.782 28.46 159.435 28.46C159.827 28.46 160.247 28.3853 160.695 28.236C161.143 28.0867 161.582 27.8347 162.011 27.48C162.459 27.1253 162.861 26.6213 163.215 25.968L163.747 26.164C163.542 26.8173 163.206 27.4707 162.739 28.124C162.291 28.7773 161.703 29.3187 160.975 29.748C160.247 30.1773 159.361 30.392 158.315 30.392C157.121 30.392 156.038 30.1213 155.067 29.58C154.097 29.02 153.322 28.18 152.743 27.06C152.183 25.94 151.903 24.5493 151.903 22.888C151.903 21.2453 152.193 19.8547 152.771 18.716C153.35 17.5587 154.153 16.672 155.179 16.056C156.225 15.44 157.391 15.132 158.679 15.132ZM172.432 15.132C173.72 15.132 174.858 15.3933 175.848 15.916C176.856 16.42 177.649 17.232 178.228 18.352C178.825 19.472 179.124 20.9467 179.124 22.776C179.124 24.6053 178.825 26.08 178.228 27.2C177.649 28.32 176.856 29.132 175.848 29.636C174.858 30.14 173.72 30.392 172.432 30.392C171.144 30.392 169.996 30.14 168.988 29.636C167.98 29.132 167.186 28.32 166.608 27.2C166.029 26.08 165.74 24.6053 165.74 22.776C165.74 20.9467 166.029 19.472 166.608 18.352C167.186 17.232 167.98 16.42 168.988 15.916C169.996 15.3933 171.144 15.132 172.432 15.132ZM172.432 15.692C171.554 15.692 170.836 16.252 170.276 17.372C169.734 18.4733 169.464 20.2747 169.464 22.776C169.464 25.2773 169.734 27.0787 170.276 28.18C170.836 29.2813 171.554 29.832 172.432 29.832C173.29 29.832 174 29.2813 174.56 28.18C175.12 27.0787 175.4 25.2773 175.4 22.776C175.4 20.2747 175.12 18.4733 174.56 17.372C174 16.252 173.29 15.692 172.432 15.692ZM193.932 15.524V16.112C193.577 16.1867 193.241 16.3827 192.924 16.7C192.625 17.0173 192.336 17.5773 192.056 18.38L187.772 30.084C187.548 30.0653 187.324 30.056 187.1 30.056C186.876 30.056 186.642 30.0653 186.4 30.084L181.36 17.68C181.08 16.9707 180.79 16.532 180.492 16.364C180.193 16.196 179.941 16.112 179.736 16.112V15.524C180.258 15.5613 180.8 15.5987 181.36 15.636C181.92 15.6547 182.536 15.664 183.208 15.664C183.786 15.664 184.393 15.6547 185.028 15.636C185.681 15.5987 186.288 15.5613 186.848 15.524V16.112C186.437 16.112 186.064 16.14 185.728 16.196C185.41 16.252 185.196 16.4013 185.084 16.644C184.972 16.868 185.018 17.2693 185.224 17.848L188.584 26.556L188.332 26.864L190.88 19.948C191.197 19.0707 191.328 18.3613 191.272 17.82C191.216 17.2787 191.01 16.868 190.656 16.588C190.32 16.308 189.834 16.1493 189.2 16.112V15.524C189.517 15.5427 189.816 15.5613 190.096 15.58C190.394 15.5987 190.684 15.6173 190.964 15.636C191.262 15.636 191.542 15.636 191.804 15.636C192.196 15.636 192.578 15.6267 192.952 15.608C193.344 15.5893 193.67 15.5613 193.932 15.524ZM201.388 15.132C203.03 15.132 204.318 15.6267 205.252 16.616C206.185 17.6053 206.652 19.1827 206.652 21.348H197.216L197.188 20.816H203.404C203.441 19.9013 203.385 19.0613 203.236 18.296C203.086 17.512 202.844 16.8867 202.508 16.42C202.19 15.9533 201.77 15.72 201.248 15.72C200.538 15.72 199.922 16.14 199.4 16.98C198.877 17.8013 198.55 19.1547 198.42 21.04L198.532 21.208C198.494 21.4507 198.466 21.712 198.448 21.992C198.448 22.272 198.448 22.552 198.448 22.832C198.448 24.12 198.634 25.184 199.008 26.024C199.381 26.864 199.866 27.48 200.464 27.872C201.061 28.264 201.677 28.46 202.312 28.46C202.741 28.46 203.18 28.3947 203.628 28.264C204.076 28.1333 204.514 27.8907 204.944 27.536C205.373 27.1813 205.765 26.6773 206.12 26.024L206.652 26.248C206.446 26.9013 206.101 27.5547 205.616 28.208C205.149 28.8427 204.542 29.3653 203.796 29.776C203.049 30.1867 202.172 30.392 201.164 30.392C199.894 30.392 198.774 30.112 197.804 29.552C196.833 28.992 196.077 28.1613 195.536 27.06C194.994 25.94 194.724 24.5773 194.724 22.972C194.724 21.2733 195.004 19.8453 195.564 18.688C196.142 17.5307 196.936 16.6533 197.944 16.056C198.952 15.44 200.1 15.132 201.388 15.132ZM217.655 15.132C218.234 15.132 218.71 15.2533 219.083 15.496C219.475 15.7387 219.764 16.0467 219.951 16.42C220.138 16.7933 220.231 17.1853 220.231 17.596C220.231 18.212 220.044 18.7253 219.671 19.136C219.316 19.5467 218.84 19.752 218.243 19.752C217.683 19.752 217.226 19.6027 216.871 19.304C216.516 19.0053 216.339 18.5947 216.339 18.072C216.339 17.6053 216.451 17.2133 216.675 16.896C216.918 16.5787 217.188 16.3267 217.487 16.14C217.282 16.028 217.048 15.9907 216.787 16.028C216.339 16.0653 215.928 16.224 215.555 16.504C215.182 16.784 214.864 17.1293 214.603 17.54C214.342 17.9507 214.136 18.3893 213.987 18.856C213.856 19.3227 213.791 19.7707 213.791 20.2V27.116C213.791 28.0307 214.024 28.6467 214.491 28.964C214.958 29.2627 215.639 29.412 216.535 29.412V30C216.106 29.9813 215.48 29.9627 214.659 29.944C213.856 29.9067 213.016 29.888 212.139 29.888C211.411 29.888 210.683 29.9067 209.955 29.944C209.246 29.9627 208.714 29.9813 208.359 30V29.412C209.05 29.412 209.535 29.272 209.815 28.992C210.114 28.712 210.263 28.18 210.263 27.396V18.576C210.263 17.736 210.123 17.12 209.843 16.728C209.582 16.3173 209.087 16.112 208.359 16.112V15.524C208.956 15.58 209.535 15.608 210.095 15.608C210.786 15.608 211.439 15.58 212.055 15.524C212.69 15.4493 213.268 15.3467 213.791 15.216V18.128C214.015 17.6053 214.304 17.12 214.659 16.672C215.032 16.224 215.471 15.86 215.975 15.58C216.498 15.2813 217.058 15.132 217.655 15.132Z" fill="#FDCF00"/>
</svg>
