<?xml version="1.0" encoding="UTF-8"?>
<!DOCTYPE svg PUBLIC "-//W3C//DTD SVG 1.1//EN" "http://www.w3.org/Graphics/SVG/1.1/DTD/svg11.dtd">
<!-- Creator: CorelDRAW 2021 (64-Bit) -->
<svg xmlns="http://www.w3.org/2000/svg" xml:space="preserve" width="183.657mm" height="192.847mm" version="1.1" style="shape-rendering:geometricPrecision; text-rendering:geometricPrecision; image-rendering:optimizeQuality; fill-rule:evenodd; clip-rule:evenodd"
viewBox="0 0 15412.67 16183.91"
 xmlns:xlink="http://www.w3.org/1999/xlink"
 xmlns:xodm="http://www.corel.com/coreldraw/odm/2003">
 <defs>
  <style type="text/css">
   <![CDATA[
    .fil0 {fill:#393939}
   ]]>
  </style>
 </defs>
 <g id="Layer_x0020_1">
  <metadata id="CorelCorpID_0Corel-Layer"/>
  <g id="_2249703630208">
   <path class="fil0" d="M-0 7709.41c0,890.95 153.11,1689.25 368.93,2369.23 24.86,78.31 53.31,169.49 85.49,251.05 34.26,86.81 61.12,175.18 96.53,255.29 19.2,43.4 29.02,70.52 47.7,120.58 75.13,201.38 183.34,388.16 278.37,578.24 184.68,369.44 412.46,722.3 661.26,1052.01l306.15 382.21c86.51,112 98.98,50.55 124.84,211.69l395.37 2358.08c32.86,196.61 140.63,743.01 144.05,896.13l45.89 0 0 -2829.92c0.03,-64.77 3.89,-131.97 -4.7,-195.22l4.7 -4485.65c-43.02,-11.48 -76.95,-44.97 -110.64,-72.93 -1181.49,-979.62 -1138.78,-3339.75 20.96,-4208.1 437.46,-327.56 986.14,-371.89 1440.52,-37.4 400.51,294.86 626.13,699.26 786.84,1171.16 242.63,712.45 169.02,1687.91 -148.83,2336.77 -169.65,346.33 -340.15,550.78 -628.54,778.77 -23.13,18.29 -44.77,22.02 -44.77,62.34l0 3747.73c0,448.62 161.27,1012.47 353.92,1313.47 15.12,23.63 7.01,8.85 18.38,27.52l351.29 505.32c396.73,526.24 1148.2,902.01 1778.52,1005.51 230.69,37.89 450.97,85.2 679.66,85.2l0 -6654.17c-162.1,-13.49 -438.67,-267.88 -556.67,-376.43l-55.45 -66.94c-110.17,-152.84 -211.39,-291.33 -286.17,-478.67 -50.91,-127.52 -111.31,-330.65 -111.31,-500.57l0 -2937c0,-254.48 364.33,-350.42 496.74,-144.91 57.58,89.38 54.13,173.45 53.97,313.16l-1 1821.32c4.26,249.74 372.33,268.45 410.79,26.41 22.03,-138.61 3.22,-1553.34 3.2,-1801.84 0,-131.97 -13.29,-229.71 29.91,-321.95 91.27,-194.89 329.54,-173.53 429.41,-15.01 59.16,93.87 30.19,910.15 30.19,1055.91 0,172.68 -18.99,931.02 3.26,1067.51 39.77,244.02 376.76,259.41 419.56,13.1 25.78,-148.3 5.47,-1543.76 5.47,-1799.56 0,-201.23 -19.56,-461.31 247.04,-465.23 85.98,-1.27 173.59,61.93 211.87,128.71 61.39,107.1 30.61,899.24 30.61,1055.47 0,201.61 -17.82,900.71 1.37,1069.41 21.09,185.64 254.5,248.36 372.89,115.62 70.96,-79.57 38.75,-487.55 38.75,-603.73 0,-285.56 0,-571.09 0,-856.64 0,-299.16 -116.94,-1004.76 338.28,-905.35 98.41,21.48 212.4,107.09 212.4,216.99l0 2967.61c0,405.7 -211.14,756.17 -422.67,1015.25 -96.74,118.49 -241.54,236.97 -377.97,310.4 -63.02,33.95 -134.58,90.77 -208.96,96.96l0 6654.17c356.97,0 728.09,-125.59 1046.73,-268.81 240.84,-108.26 467.32,-249.4 662.58,-423.51 47.78,-42.6 76.89,-60.56 122.63,-106.81 486.32,-491.88 802.24,-1026.78 913.08,-1733.28 71.98,-458.72 39.01,-1193.75 39.01,-1689.55l-0.92 -6823.35c-0.08,-41.78 -4.19,-63.81 11.3,-95.78 62.51,-129.01 220.73,10.75 292.76,53.63 70.83,42.15 229.69,149.74 291.19,213.61l568.36 624.8c299.14,424.07 511.62,901.49 639.29,1410.51 283.49,1130.48 156.01,2403.39 -107.05,3527.48 -67.82,289.85 -149.78,557.6 -212.22,858.55 -30.1,145.04 -59.46,290.34 -84.23,451.17l-56.62 494.07c-55.4,424.87 -26.31,3775.25 -26.31,4287.42l45.9 0c0,-100.51 28.99,-218.76 43.68,-308.16l156.5 -898.97c100.38,-503.17 168.29,-1011.87 262.6,-1511.85 28.6,-151.56 33.33,-131.04 122.63,-229.2 56.03,-61.59 67.2,-49.77 144.18,-146.48l30.25 -30.95c156.35,-146.86 287.16,-301.16 421.54,-465.66l152.92 -198.9c244.79,-294.48 452.4,-635.03 633.98,-972.21l179.75 -355.66c20.83,-50.48 37.07,-75.81 60.02,-123.52 119.35,-248.23 215.84,-508.77 302.58,-768.2 383.62,-1147.34 495.6,-2497.06 282.16,-3773.75 -67.32,-402.74 -169.08,-786.01 -293.63,-1159.57 -72.36,-217.04 -156.87,-399.29 -233.44,-607.89 -110.03,-299.77 -367.69,-744.59 -540.09,-1020.2 -35.68,-57.06 -59.6,-90.43 -95.43,-149.33 -103.04,-169.45 -223.98,-339.94 -352.6,-488.74l-326.92 -392.02c-112.72,-141.2 -275.67,-308.97 -411.74,-429.58l-652.48 -555.98c-413.6,-323.97 -874.52,-592.06 -1344.81,-827.35l-168.17 -76.59c-233.14,-108.73 -449.53,-189.72 -692.84,-270.86 -516.34,-172.16 -1016.06,-279.37 -1576.87,-350.54 -1105.87,-140.35 -2339.52,-17.41 -3391.03,350.39l-1008.9 429.03c-220.89,119.01 -449.2,225.67 -650.97,373.92l-603.16 421.73c-24.09,20.11 -44.05,39.22 -65.58,56.8l-137.06 107.68c-307.99,242.23 -723.45,674.33 -965.49,961.93 -37.75,44.85 -68.37,79.64 -103.26,126.18 -246.67,329.06 -484.68,650.89 -686.34,1011.64 -117.25,209.78 -232.72,415.15 -325.37,638.34 -202.3,487.29 -359.67,918.86 -483.85,1443.56 -116.71,493.25 -195.66,1119.71 -195.66,1731.74z"/>
   <path class="fil0" d="M12115.16 7495.26c0,60.3 10.84,69.81 10.84,107.08 0,37.26 -10.84,46.78 -10.84,107.07l0 3411.22c0,41.31 7.32,42.19 15.31,76.49l45.89 0c3.89,-46.63 101.14,-254.98 128.1,-330.81 41.77,-117.44 77.34,-220.44 121.22,-337.7 135.48,-362.16 311.62,-1130.21 360.02,-1475.6 97.83,-698.19 120.69,-1398.85 9.27,-2099.87 -74.14,-466.36 -184.68,-768.76 -360.67,-1199.61 -62.23,-152.34 -266.05,-495.29 -273.24,-522.21l-45.89 0 0 1713.26c0,92.29 -5.24,200.46 -0.02,290.76 3.92,68 16.77,58.43 13.15,119.95 -2.58,44.26 -13.13,69.44 -13.13,139.98z"/>
   <path class="fil0" d="M4084.29 8168.32c144.52,-12.02 381.32,-595.32 411.2,-690.15 258.01,-818.54 210.16,-1782.7 -273.53,-2506.92 -72.63,-108.74 -61.36,-131.31 -137.67,-137.66l0 3334.72z"/>
  </g>
 </g>
</svg>
